<svg width="24" height="24" viewBox="0 0 24 24" fill="currentColor"><path d="M2 5C2 3.89543 2.89543 3 4 3H20C21.1046 3 22 3.89543 22 5V19C22 20.1046 21.1046 21 20 21H4C2.89543 21 2 20.1046 2 19V5ZM6 7C5.44772 7 5 7.44772 5 8C5 8.55228 5.44772 9 6 9H18C18.5523 9 19 8.55228 19 8C19 7.44772 18.5523 7 18 7H6ZM5 12C5 11.4477 5.44772 11 6 11H18C18.5523 11 19 11.4477 19 12C19 12.5523 18.5523 13 18 13H6C5.44772 13 5 12.5523 5 12ZM6 15C5.44772 15 5 15.4477 5 16C5 16.5523 5.44772 17 6 17H18C18.5523 17 19 16.5523 19 16C19 15.4477 18.5523 15 18 15H6Z"/></svg>