<svg width="24" height="24" viewBox="0 0 24 24" fill="currentColor" fill-rule="evenodd"><path d="M12.22 2c.4 0 .76.24.9.61l.52 1.45c.42.15.82.35 1.2.58l1.41-.61a.97.97 0 0 1 1.13.29l1.83 2.18a.96.96 0 0 1 .1 1.16l-.76 1.34c.16.4.28.82.35 1.25l1.52.33c.36.08.62.39.62.75v2.85c0 .37-.26.68-.62.75l-1.52.33a5.95 5.95 0 0 1-.35 1.25l.76 1.34c.21.36.14.81-.16 1.1l-2.02 1.93a.96.96 0 0 1-1.12.16l-1.35-.7c-.38.25-.78.46-1.2.62l-.4 1.48c-.1.38-.45.64-.85.64H11c-.4 0-.75-.26-.85-.64l-.4-1.48c-.42-.16-.82-.37-1.2-.62l-1.35.7a.96.96 0 0 1-1.12-.16L4.06 18.2a.96.96 0 0 1-.16-1.1l.76-1.34a5.95 5.95 0 0 1-.35-1.25l-1.52-.33A.77.77 0 0 1 2.17 13.4v-2.85c0-.36.26-.67.62-.75l1.52-.33c.07-.43.19-.85.35-1.25L3.9 6.88a.96.96 0 0 1 .1-1.16l1.83-2.18a.97.97 0 0 1 1.13-.29l1.41.61c.38-.23.78-.43 1.2-.58l.52-1.45c.14-.37.5-.61.9-.61h2.23ZM12 8.5A3.5 3.5 0 1 0 12 15.5 3.5 3.5 0 0 0 12 8.5Z"/></svg>